{
  "accessors": [
    {
      "bufferView": 2,
      "componentType": 5126,
      "count": 34250,
      "max": [
        0.9462333917617798,
        1.919060230255127,
        2.373419761657715
      ],
      "min": [
        -1.9583935737609863,
        -2.167811393737793,
        -1.0207947492599487
      ],
      "type": "VEC3"
    },
    {
      "bufferView": 2,
      "byteOffset": 411000,
      "componentType": 5126,
      "count": 34250,
      "max": [
        0.9999882578849792,
        0.9999776482582092,
        0.9999192357063293
      ],
      "min": [
        -0.9999565482139587,
        -0.9999765157699585,
        -0.9999921321868896
      ],
      "type": "VEC3"
    },
    {
      "bufferView": 3,
      "componentType": 5126,
      "count": 34250,
      "max": [
        0.8980392217636108,
        0.800000011920929,
        0.4313725531101227,
        1.0
      ],
      "min": [
        0.003921568859368563,
        0.0,
        0.0,
        1.0
      ],
      "type": "VEC4"
    },
    {
      "bufferView": 1,
      "componentType": 5126,
      "count": 34250,
      "max": [
        0.9032959938049316,
        0.998046875
      ],
      "min": [
        0.001953117665834725,
        0.001953145721927285
      ],
      "type": "VEC2"
    },
    {
      "bufferView": 0,
      "componentType": 5125,
      "count": 202044,
      "type": "SCALAR"
    }
  ],
  "asset": {
    "extras": {
      "author": "nimish (https://sketchfab.com/nimish)",
      "license": "CC-BY-4.0 (http://creativecommons.org/licenses/by/4.0/)",
      "source": "https://sketchfab.com/3d-models/cheems-08a9726323ca4580bfa8940319687dc3",
      "title": "Cheems"
    },
    "generator": "Sketchfab-12.65.0",
    "version": "2.0"
  },
  "bufferViews": [
    {
      "buffer": 0,
      "byteLength": 808176,
      "name": "floatBufferViews",
      "target": 34963
    },
    {
      "buffer": 0,
      "byteLength": 274000,
      "byteOffset": 808176,
      "byteStride": 8,
      "name": "floatBufferViews",
      "target": 34962
    },
    {
      "buffer": 0,
      "byteLength": 822000,
      "byteOffset": 1082176,
      "byteStride": 12,
      "name": "floatBufferViews",
      "target": 34962
    },
    {
      "buffer": 0,
      "byteLength": 548000,
      "byteOffset": 1904176,
      "byteStride": 16,
      "name": "floatBufferViews",
      "target": 34962
    }
  ],
  "buffers": [
    {
      "byteLength": 2452176,
      "uri": "scene.bin"
    }
  ],
  "materials": [
    {
      "doubleSided": true,
      "name": "PM3D_Dobermann_ZSpheres",
      "pbrMetallicRoughness": {
        "baseColorFactor": [
          0.5,
          0.5,
          0.5,
          1.0
        ],
        "metallicFactor": 0.0
      }
    }
  ],
  "meshes": [
    {
      "name": "PM3D_Dobermann_ZSpheres_PM3D_Dobermann_ZSpheres_0",
      "primitives": [
        {
          "attributes": {
            "COLOR_0": 2,
            "NORMAL": 1,
            "POSITION": 0,
            "TEXCOORD_0": 3
          },
          "indices": 4,
          "material": 0,
          "mode": 4
        }
      ]
    }
  ],
  "nodes": [
    {
      "children": [
        1
      ],
      "matrix": [
        1.0,
        0.0,
        0.0,
        0.0,
        0.0,
        2.220446049250313e-16,
        -1.0,
        0.0,
        0.0,
        1.0,
        2.220446049250313e-16,
        0.0,
        0.0,
        0.0,
        0.0,
        1.0
      ],
      "name": "Sketchfab_model"
    },
    {
      "children": [
        2
      ],
      "matrix": [
        1.0,
        0.0,
        0.0,
        0.0,
        0.0,
        0.0,
        1.0,
        0.0,
        0.0,
        -1.0,
        0.0,
        0.0,
        0.0,
        0.0,
        0.0,
        1.0
      ],
      "name": "8ee98af944644c56b739f8debef2a18a.fbx"
    },
    {
      "children": [
        3
      ],
      "name": "RootNode"
    },
    {
      "children": [
        4
      ],
      "name": "PM3D_Dobermann_ZSpheres"
    },
    {
      "mesh": 0,
      "name": "PM3D_Dobermann_ZSpheres_PM3D_Dobermann_ZSpheres_0"
    }
  ],
  "scene": 0,
  "scenes": [
    {
      "name": "Sketchfab_Scene",
      "nodes": [
        0
      ]
    }
  ]
}
